<svg width="13" height="12" viewBox="0 0 13 12" fill="none" xmlns="http://www.w3.org/2000/svg">
<path d="M5.79296 0.778834C5.94263 0.318179 6.59434 0.318178 6.74402 0.778833L7.79861 4.02454C7.86555 4.23055 8.05753 4.37004 8.27414 4.37004H11.6869C12.1712 4.37004 12.3726 4.98984 11.9808 5.27454L9.21981 7.2805C9.04456 7.40783 8.97123 7.63351 9.03817 7.83952L10.0928 11.0852C10.2424 11.5459 9.7152 11.9289 9.32335 11.6442L6.56238 9.63829C6.38714 9.51097 6.14984 9.51097 5.97459 9.63829L3.21363 11.6442C2.82177 11.9289 2.29453 11.5459 2.44421 11.0852L3.4988 7.83952C3.56574 7.63351 3.49241 7.40783 3.31717 7.2805L0.556201 5.27454C0.164344 4.98984 0.365731 4.37004 0.850093 4.37004H4.26284C4.47945 4.37004 4.67143 4.23055 4.73836 4.02454L5.79296 0.778834Z" fill="#F5C518"/>
</svg>
